<?xml version="1.0" encoding="utf-8"?>
<!-- Generator: Adobe Illustrator 23.0.1, SVG Export Plug-In . SVG Version: 6.00 Build 0)  -->
<svg version="1.1" xmlns="http://www.w3.org/2000/svg" xmlns:xlink="http://www.w3.org/1999/xlink" x="0px" y="0px"
	 viewBox="0 0 444.96 347.04" style="enable-background:new 0 0 444.96 347.04;" xml:space="preserve">
<style type="text/css">
	.st0{fill:#FFFFFF;}
	.st1{fill:none;stroke:#FFFFFF;stroke-width:3;stroke-linecap:round;stroke-linejoin:round;stroke-miterlimit:10;}
	.st2{fill:none;stroke:#000000;stroke-width:3;stroke-linecap:round;stroke-linejoin:round;stroke-miterlimit:10;}
</style>
<g id="Layer_1">
</g>
<g id="Layer_2">
</g>
<g id="Layer_3">
</g>
<g id="Layer_4">
</g>
<g id="Layer_5">
</g>
<g id="Layer_6">
	<g>
		<g>
			<g>
				<path class="st0" d="M63.22,289.81c0-3.68-1.65-6.23-3.76-8.11c-2.1-1.88-4.66-2.85-6.31-3.46c-1.2-0.38-1.95-0.45-1.95-0.45
					H36.93v22.39c0,0.53-0.38,0.98-0.9,0.98c-0.53,0-0.98-0.45-0.98-0.98v-50.63c0-0.53,0.45-0.98,0.98-0.98h0.08h0.08h15.25
					c8.04,0,14.65,6.54,14.65,14.65c0,6.69-4.43,12.24-10.52,13.97c0.9,0.38,1.8,0.83,2.7,1.35c3.3,1.88,6.84,5.48,6.84,11.27
					c0,4.28,0.6,6.61,1.13,7.66c0.68,1.05,1.05,0.9,1.13,0.9h0.15c0.45-0.08,1.05,0.23,1.13,0.68c0.15,0.45-0.08,1.05-0.6,1.13
					c-0.08,0.15-0.3,0.15-0.68,0.15c-0.75,0-1.95-0.53-2.7-2.03C63.74,296.79,63.22,294.31,63.22,289.81z M51.43,275.83h0.15
					c6.91-0.08,12.54-5.56,12.54-12.62s-5.71-12.77-12.7-12.77h-14.5v25.39H51.43z"/>
				<path class="st0" d="M87.85,249.54c0-0.6,0.38-0.98,0.98-0.98c0.45,0,0.9,0.38,0.9,0.98v50.63c0,0.6-0.45,0.98-0.9,0.98
					c-0.6,0-0.98-0.38-0.98-0.98V249.54z"/>
				<path class="st0" d="M139.46,247.81c6.46,0,12.47,2.25,17.05,5.78c0.45,0.38,0.6,0.98,0.3,1.35c-0.45,0.45-1.05,0.53-1.43,0.15
					c-4.36-3.38-9.84-5.33-15.92-5.33c-13.9,0-25.32,11.04-25.32,24.64c0,13.75,11.42,24.79,25.32,24.79
					c6.01,0,11.49-1.95,15.85-5.33c0.45-0.3,1.05-0.3,1.43,0.15c0.38,0.38,0.23,0.98-0.23,1.35c-4.73,3.53-10.59,5.78-17.05,5.78
					c-15.02-0.08-27.27-12.02-27.27-26.74C112.19,259.83,124.43,247.81,139.46,247.81z"/>
				<path class="st0" d="M208.49,275.76h-29.9v24.41c0,0.53-0.45,0.98-0.9,0.98c-0.6,0-0.98-0.45-0.98-0.98v-50.63
					c0-0.53,0.38-0.98,0.98-0.98c0.45,0,0.9,0.45,0.9,0.98v24.34h29.9v-24.34c0-0.53,0.38-0.98,0.9-0.98c0.53,0,0.98,0.45,0.98,0.98
					v50.63c0,0.53-0.45,0.98-0.98,0.98c-0.53,0-0.9-0.45-0.9-0.98V275.76z"/>
				<path class="st0" d="M258.89,286.88H232.6l-5.03,13.45c-0.08,0.38-0.45,0.68-0.83,0.68c-0.08,0-0.23-0.08-0.38-0.08
					c-0.45-0.23-0.68-0.75-0.45-1.28l18.93-50.48c0.15-0.45,0.53-0.68,0.98-0.6c0.38,0,0.75,0.23,0.98,0.6l18.93,50.48
					c0.23,0.53-0.08,1.05-0.53,1.28c-0.15,0-0.23,0.08-0.3,0.08c-0.38,0-0.75-0.3-0.98-0.68L258.89,286.88z M233.35,284.92h24.79
					l-12.39-32.9L233.35,284.92z"/>
				<path class="st0" d="M309.29,289.81c0-3.68-1.65-6.23-3.76-8.11c-2.1-1.88-4.66-2.85-6.31-3.46c-1.2-0.38-1.95-0.45-1.95-0.45
					H283v22.39c0,0.53-0.38,0.98-0.9,0.98s-0.98-0.45-0.98-0.98v-50.63c0-0.53,0.45-0.98,0.98-0.98h0.08h0.08h15.25
					c8.04,0,14.65,6.54,14.65,14.65c0,6.69-4.43,12.24-10.52,13.97c0.9,0.38,1.8,0.83,2.7,1.35c3.3,1.88,6.84,5.48,6.84,11.27
					c0,4.28,0.6,6.61,1.13,7.66c0.68,1.05,1.05,0.9,1.13,0.9h0.15c0.45-0.08,1.05,0.23,1.13,0.68c0.15,0.45-0.08,1.05-0.6,1.13
					c-0.08,0.15-0.3,0.15-0.68,0.15c-0.75,0-1.95-0.53-2.7-2.03C309.81,296.79,309.29,294.31,309.29,289.81z M297.49,275.83h0.15
					c6.91-0.08,12.54-5.56,12.54-12.62s-5.71-12.77-12.7-12.77H283v25.39H297.49z"/>
				<path class="st0" d="M333.4,249.54c0-0.53,0.38-0.98,0.98-0.98h0.08h9.99c14.57,0,26.29,11.79,26.29,26.22
					c0,14.57-11.72,26.37-26.29,26.37h-9.99h-0.08c-0.6,0-0.98-0.45-0.98-0.98V249.54z M344.44,299.27
					c13.52-0.15,24.34-10.97,24.41-24.49c-0.08-13.37-10.89-24.34-24.41-24.34h-9.16v48.83H344.44z"/>
				<path class="st0" d="M401.82,250.44h-17.35c-0.53,0-0.98-0.38-0.98-0.9s0.45-0.98,0.98-0.98h36.58c0.6,0,0.98,0.45,0.98,0.98
					s-0.38,0.9-0.98,0.9h-17.28v49.73c0,0.53-0.53,0.98-0.98,0.98c-0.6,0-0.98-0.45-0.98-0.98V250.44z"/>
			</g>
		</g>
		<line class="st1" x1="34.18" y1="50.5" x2="34.18" y2="188.57"/>
		<line class="st1" x1="34.18" y1="174.32" x2="157.71" y2="50.79"/>
		<path class="st1" d="M171.8,50.94"/>
		<line class="st1" x1="34.18" y1="188.57" x2="90.79" y2="131.96"/>
		<line class="st1" x1="90.79" y1="117.71" x2="161.93" y2="188.85"/>
		<line class="st1" x1="222.88" y1="60.57" x2="222.88" y2="188.57"/>
		<line class="st1" x1="232.95" y1="50.5" x2="232.95" y2="178.49"/>
		<path class="st2" d="M90.79,137.25"/>
		<path class="st1" d="M90.79,117.71"/>
		<line class="st1" x1="233.07" y1="63.1" x2="233.07" y2="77.35"/>
		<line class="st1" x1="222.88" y1="60.57" x2="232.95" y2="50.5"/>
		<line class="st1" x1="222.88" y1="188.57" x2="232.95" y2="178.49"/>
		<line class="st1" x1="292.57" y1="50.5" x2="292.57" y2="188.57"/>
		<line class="st1" x1="420.27" y1="188.57" x2="420.27" y2="50.94"/>
		<line class="st1" x1="292.57" y1="50.5" x2="356.14" y2="117.71"/>
		<line class="st1" x1="420.27" y1="50.94" x2="356.14" y2="117.71"/>
		<line class="st1" x1="356.14" y1="127.9" x2="292.57" y2="60.69"/>
		<line class="st1" x1="356.14" y1="107.52" x2="292.57" y2="39.88"/>
	</g>
</g>
</svg>
